<svg xmlns="http://www.w3.org/2000/svg" width="272" height="342" viewBox="0 0 72 90.5">
  <path fill="none" stroke="#587fa6" stroke-width="1.2" d="M.6 39.7V19h20.6"/>
  <path fill="none" stroke="#9eb7d1" d="M.6 72.3V90h17.6"/>
  <path fill="none" stroke="#587fa6" stroke-width="1.2" d="M.6 69.3V90h20.6"/>
  <path fill="none" stroke="#587fa6" stroke-width="1.2" d="M71.4 39.7V19H50.8"/>
  <path fill="none" stroke="#587fa6" stroke-width="1.2" d="M71.4 69.3V90H50.8"/>
  <g transform="matrix(.26458 0 0 .26458 1.1 19.6)">
    <rect width="264" height="264" fill="#ffffff"/>
    <rect width="8" height="8" x="32" y="32" fill="#000000"/>
    <rect width="8" height="8" x="40" y="32" fill="#000000"/>
    <rect width="8" height="8" x="48" y="32" fill="#000000"/>
    <rect width="8" height="8" x="56" y="32" fill="#000000"/>
    <rect width="8" height="8" x="64" y="32" fill="#000000"/>
    <rect width="8" height="8" x="72" y="32" fill="#000000"/>
    <rect width="8" height="8" x="80" y="32" fill="#000000"/>
    <rect width="8" height="8" x="96" y="32" fill="#000000"/>
    <rect width="8" height="8" x="120" y="32" fill="#000000"/>
    <rect width="8" height="8" x="128" y="32" fill="#000000"/>
    <rect width="8" height="8" x="152" y="32" fill="#000000"/>
    <rect width="8" height="8" x="176" y="32" fill="#000000"/>
    <rect width="8" height="8" x="184" y="32" fill="#000000"/>
    <rect width="8" height="8" x="192" y="32" fill="#000000"/>
    <rect width="8" height="8" x="200" y="32" fill="#000000"/>
    <rect width="8" height="8" x="208" y="32" fill="#000000"/>
    <rect width="8" height="8" x="216" y="32" fill="#000000"/>
    <rect width="8" height="8" x="224" y="32" fill="#000000"/>
    <rect width="8" height="8" x="32" y="40" fill="#000000"/>
    <rect width="8" height="8" x="80" y="40" fill="#000000"/>
    <rect width="8" height="8" x="96" y="40" fill="#000000"/>
    <rect width="8" height="8" x="112" y="40" fill="#000000"/>
    <rect width="8" height="8" x="128" y="40" fill="#000000"/>
    <rect width="8" height="8" x="160" y="40" fill="#000000"/>
    <rect width="8" height="8" x="176" y="40" fill="#000000"/>
    <rect width="8" height="8" x="224" y="40" fill="#000000"/>
    <rect width="8" height="8" x="32" y="48" fill="#000000"/>
    <rect width="8" height="8" x="48" y="48" fill="#000000"/>
    <rect width="8" height="8" x="56" y="48" fill="#000000"/>
    <rect width="8" height="8" x="64" y="48" fill="#000000"/>
    <rect width="8" height="8" x="80" y="48" fill="#000000"/>
    <rect width="8" height="8" x="104" y="48" fill="#000000"/>
    <rect width="8" height="8" x="112" y="48" fill="#000000"/>
    <rect width="8" height="8" x="120" y="48" fill="#000000"/>
    <rect width="8" height="8" x="128" y="48" fill="#000000"/>
    <rect width="8" height="8" x="144" y="48" fill="#000000"/>
    <rect width="8" height="8" x="152" y="48" fill="#000000"/>
    <rect width="8" height="8" x="160" y="48" fill="#000000"/>
    <rect width="8" height="8" x="176" y="48" fill="#000000"/>
    <rect width="8" height="8" x="192" y="48" fill="#000000"/>
    <rect width="8" height="8" x="200" y="48" fill="#000000"/>
    <rect width="8" height="8" x="208" y="48" fill="#000000"/>
    <rect width="8" height="8" x="224" y="48" fill="#000000"/>
    <rect width="8" height="8" x="32" y="56" fill="#000000"/>
    <rect width="8" height="8" x="48" y="56" fill="#000000"/>
    <rect width="8" height="8" x="56" y="56" fill="#000000"/>
    <rect width="8" height="8" x="64" y="56" fill="#000000"/>
    <rect width="8" height="8" x="80" y="56" fill="#000000"/>
    <rect width="8" height="8" x="96" y="56" fill="#000000"/>
    <rect width="8" height="8" x="104" y="56" fill="#000000"/>
    <rect width="8" height="8" x="112" y="56" fill="#000000"/>
    <rect width="8" height="8" x="128" y="56" fill="#000000"/>
    <rect width="8" height="8" x="144" y="56" fill="#000000"/>
    <rect width="8" height="8" x="152" y="56" fill="#000000"/>
    <rect width="8" height="8" x="176" y="56" fill="#000000"/>
    <rect width="8" height="8" x="192" y="56" fill="#000000"/>
    <rect width="8" height="8" x="200" y="56" fill="#000000"/>
    <rect width="8" height="8" x="208" y="56" fill="#000000"/>
    <rect width="8" height="8" x="224" y="56" fill="#000000"/>
    <rect width="8" height="8" x="32" y="64" fill="#000000"/>
    <rect width="8" height="8" x="48" y="64" fill="#000000"/>
    <rect width="8" height="8" x="56" y="64" fill="#000000"/>
    <rect width="8" height="8" x="64" y="64" fill="#000000"/>
    <rect width="8" height="8" x="80" y="64" fill="#000000"/>
    <rect width="8" height="8" x="96" y="64" fill="#000000"/>
    <rect width="8" height="8" x="112" y="64" fill="#000000"/>
    <rect width="8" height="8" x="120" y="64" fill="#000000"/>
    <rect width="8" height="8" x="136" y="64" fill="#000000"/>
    <rect width="8" height="8" x="152" y="64" fill="#000000"/>
    <rect width="8" height="8" x="160" y="64" fill="#000000"/>
    <rect width="8" height="8" x="176" y="64" fill="#000000"/>
    <rect width="8" height="8" x="192" y="64" fill="#000000"/>
    <rect width="8" height="8" x="200" y="64" fill="#000000"/>
    <rect width="8" height="8" x="208" y="64" fill="#000000"/>
    <rect width="8" height="8" x="224" y="64" fill="#000000"/>
    <rect width="8" height="8" x="32" y="72" fill="#000000"/>
    <rect width="8" height="8" x="80" y="72" fill="#000000"/>
    <rect width="8" height="8" x="96" y="72" fill="#000000"/>
    <rect width="8" height="8" x="112" y="72" fill="#000000"/>
    <rect width="8" height="8" x="152" y="72" fill="#000000"/>
    <rect width="8" height="8" x="176" y="72" fill="#000000"/>
    <rect width="8" height="8" x="224" y="72" fill="#000000"/>
    <rect width="8" height="8" x="32" y="80" fill="#000000"/>
    <rect width="8" height="8" x="40" y="80" fill="#000000"/>
    <rect width="8" height="8" x="48" y="80" fill="#000000"/>
    <rect width="8" height="8" x="56" y="80" fill="#000000"/>
    <rect width="8" height="8" x="64" y="80" fill="#000000"/>
    <rect width="8" height="8" x="72" y="80" fill="#000000"/>
    <rect width="8" height="8" x="80" y="80" fill="#000000"/>
    <rect width="8" height="8" x="96" y="80" fill="#000000"/>
    <rect width="8" height="8" x="112" y="80" fill="#000000"/>
    <rect width="8" height="8" x="128" y="80" fill="#000000"/>
    <rect width="8" height="8" x="144" y="80" fill="#000000"/>
    <rect width="8" height="8" x="160" y="80" fill="#000000"/>
    <rect width="8" height="8" x="176" y="80" fill="#000000"/>
    <rect width="8" height="8" x="184" y="80" fill="#000000"/>
    <rect width="8" height="8" x="192" y="80" fill="#000000"/>
    <rect width="8" height="8" x="200" y="80" fill="#000000"/>
    <rect width="8" height="8" x="208" y="80" fill="#000000"/>
    <rect width="8" height="8" x="216" y="80" fill="#000000"/>
    <rect width="8" height="8" x="224" y="80" fill="#000000"/>
    <rect width="8" height="8" x="112" y="88" fill="#000000"/>
    <rect width="8" height="8" x="144" y="88" fill="#000000"/>
    <rect width="8" height="8" x="160" y="88" fill="#000000"/>
    <rect width="8" height="8" x="56" y="96" fill="#000000"/>
    <rect width="8" height="8" x="80" y="96" fill="#000000"/>
    <rect width="8" height="8" x="136" y="96" fill="#000000"/>
    <rect width="8" height="8" x="144" y="96" fill="#000000"/>
    <rect width="8" height="8" x="184" y="96" fill="#000000"/>
    <rect width="8" height="8" x="192" y="96" fill="#000000"/>
    <rect width="8" height="8" x="200" y="96" fill="#000000"/>
    <rect width="8" height="8" x="216" y="96" fill="#000000"/>
    <rect width="8" height="8" x="224" y="96" fill="#000000"/>
    <rect width="8" height="8" x="40" y="104" fill="#000000"/>
    <rect width="8" height="8" x="48" y="104" fill="#000000"/>
    <rect width="8" height="8" x="56" y="104" fill="#000000"/>
    <rect width="8" height="8" x="88" y="104" fill="#000000"/>
    <rect width="8" height="8" x="96" y="104" fill="#000000"/>
    <rect width="8" height="8" x="120" y="104" fill="#000000"/>
    <rect width="8" height="8" x="128" y="104" fill="#000000"/>
    <rect width="8" height="8" x="144" y="104" fill="#000000"/>
    <rect width="8" height="8" x="160" y="104" fill="#000000"/>
    <rect width="8" height="8" x="168" y="104" fill="#000000"/>
    <rect width="8" height="8" x="176" y="104" fill="#000000"/>
    <rect width="8" height="8" x="200" y="104" fill="#000000"/>
    <rect width="8" height="8" x="216" y="104" fill="#000000"/>
    <rect width="8" height="8" x="224" y="104" fill="#000000"/>
    <rect width="8" height="8" x="48" y="112" fill="#000000"/>
    <rect width="8" height="8" x="72" y="112" fill="#000000"/>
    <rect width="8" height="8" x="80" y="112" fill="#000000"/>
    <rect width="8" height="8" x="88" y="112" fill="#000000"/>
    <rect width="8" height="8" x="96" y="112" fill="#000000"/>
    <rect width="8" height="8" x="112" y="112" fill="#000000"/>
    <rect width="8" height="8" x="128" y="112" fill="#000000"/>
    <rect width="8" height="8" x="136" y="112" fill="#000000"/>
    <rect width="8" height="8" x="144" y="112" fill="#000000"/>
    <rect width="8" height="8" x="160" y="112" fill="#000000"/>
    <rect width="8" height="8" x="168" y="112" fill="#000000"/>
    <rect width="8" height="8" x="200" y="112" fill="#000000"/>
    <rect width="8" height="8" x="216" y="112" fill="#000000"/>
    <rect width="8" height="8" x="224" y="112" fill="#000000"/>
    <rect width="8" height="8" x="56" y="120" fill="#000000"/>
    <rect width="8" height="8" x="64" y="120" fill="#000000"/>
    <rect width="8" height="8" x="88" y="120" fill="#000000"/>
    <rect width="8" height="8" x="120" y="120" fill="#000000"/>
    <rect width="8" height="8" x="144" y="120" fill="#000000"/>
    <rect width="8" height="8" x="168" y="120" fill="#000000"/>
    <rect width="8" height="8" x="176" y="120" fill="#000000"/>
    <rect width="8" height="8" x="184" y="120" fill="#000000"/>
    <rect width="8" height="8" x="192" y="120" fill="#000000"/>
    <rect width="8" height="8" x="48" y="128" fill="#000000"/>
    <rect width="8" height="8" x="56" y="128" fill="#000000"/>
    <rect width="8" height="8" x="80" y="128" fill="#000000"/>
    <rect width="8" height="8" x="104" y="128" fill="#000000"/>
    <rect width="8" height="8" x="128" y="128" fill="#000000"/>
    <rect width="8" height="8" x="136" y="128" fill="#000000"/>
    <rect width="8" height="8" x="144" y="128" fill="#000000"/>
    <rect width="8" height="8" x="152" y="128" fill="#000000"/>
    <rect width="8" height="8" x="168" y="128" fill="#000000"/>
    <rect width="8" height="8" x="176" y="128" fill="#000000"/>
    <rect width="8" height="8" x="40" y="136" fill="#000000"/>
    <rect width="8" height="8" x="56" y="136" fill="#000000"/>
    <rect width="8" height="8" x="64" y="136" fill="#000000"/>
    <rect width="8" height="8" x="72" y="136" fill="#000000"/>
    <rect width="8" height="8" x="96" y="136" fill="#000000"/>
    <rect width="8" height="8" x="128" y="136" fill="#000000"/>
    <rect width="8" height="8" x="144" y="136" fill="#000000"/>
    <rect width="8" height="8" x="152" y="136" fill="#000000"/>
    <rect width="8" height="8" x="160" y="136" fill="#000000"/>
    <rect width="8" height="8" x="168" y="136" fill="#000000"/>
    <rect width="8" height="8" x="176" y="136" fill="#000000"/>
    <rect width="8" height="8" x="184" y="136" fill="#000000"/>
    <rect width="8" height="8" x="224" y="136" fill="#000000"/>
    <rect width="8" height="8" x="48" y="144" fill="#000000"/>
    <rect width="8" height="8" x="56" y="144" fill="#000000"/>
    <rect width="8" height="8" x="72" y="144" fill="#000000"/>
    <rect width="8" height="8" x="80" y="144" fill="#000000"/>
    <rect width="8" height="8" x="104" y="144" fill="#000000"/>
    <rect width="8" height="8" x="112" y="144" fill="#000000"/>
    <rect width="8" height="8" x="176" y="144" fill="#000000"/>
    <rect width="8" height="8" x="200" y="144" fill="#000000"/>
    <rect width="8" height="8" x="208" y="144" fill="#000000"/>
    <rect width="8" height="8" x="224" y="144" fill="#000000"/>
    <rect width="8" height="8" x="40" y="152" fill="#000000"/>
    <rect width="8" height="8" x="56" y="152" fill="#000000"/>
    <rect width="8" height="8" x="72" y="152" fill="#000000"/>
    <rect width="8" height="8" x="88" y="152" fill="#000000"/>
    <rect width="8" height="8" x="104" y="152" fill="#000000"/>
    <rect width="8" height="8" x="112" y="152" fill="#000000"/>
    <rect width="8" height="8" x="136" y="152" fill="#000000"/>
    <rect width="8" height="8" x="152" y="152" fill="#000000"/>
    <rect width="8" height="8" x="168" y="152" fill="#000000"/>
    <rect width="8" height="8" x="184" y="152" fill="#000000"/>
    <rect width="8" height="8" x="56" y="160" fill="#000000"/>
    <rect width="8" height="8" x="64" y="160" fill="#000000"/>
    <rect width="8" height="8" x="72" y="160" fill="#000000"/>
    <rect width="8" height="8" x="80" y="160" fill="#000000"/>
    <rect width="8" height="8" x="88" y="160" fill="#000000"/>
    <rect width="8" height="8" x="104" y="160" fill="#000000"/>
    <rect width="8" height="8" x="120" y="160" fill="#000000"/>
    <rect width="8" height="8" x="128" y="160" fill="#000000"/>
    <rect width="8" height="8" x="136" y="160" fill="#000000"/>
    <rect width="8" height="8" x="144" y="160" fill="#000000"/>
    <rect width="8" height="8" x="160" y="160" fill="#000000"/>
    <rect width="8" height="8" x="168" y="160" fill="#000000"/>
    <rect width="8" height="8" x="176" y="160" fill="#000000"/>
    <rect width="8" height="8" x="184" y="160" fill="#000000"/>
    <rect width="8" height="8" x="192" y="160" fill="#000000"/>
    <rect width="8" height="8" x="200" y="160" fill="#000000"/>
    <rect width="8" height="8" x="208" y="160" fill="#000000"/>
    <rect width="8" height="8" x="216" y="160" fill="#000000"/>
    <rect width="8" height="8" x="224" y="160" fill="#000000"/>
    <rect width="8" height="8" x="96" y="168" fill="#000000"/>
    <rect width="8" height="8" x="104" y="168" fill="#000000"/>
    <rect width="8" height="8" x="120" y="168" fill="#000000"/>
    <rect width="8" height="8" x="128" y="168" fill="#000000"/>
    <rect width="8" height="8" x="152" y="168" fill="#000000"/>
    <rect width="8" height="8" x="160" y="168" fill="#000000"/>
    <rect width="8" height="8" x="192" y="168" fill="#000000"/>
    <rect width="8" height="8" x="200" y="168" fill="#000000"/>
    <rect width="8" height="8" x="224" y="168" fill="#000000"/>
    <rect width="8" height="8" x="32" y="176" fill="#000000"/>
    <rect width="8" height="8" x="40" y="176" fill="#000000"/>
    <rect width="8" height="8" x="48" y="176" fill="#000000"/>
    <rect width="8" height="8" x="56" y="176" fill="#000000"/>
    <rect width="8" height="8" x="64" y="176" fill="#000000"/>
    <rect width="8" height="8" x="72" y="176" fill="#000000"/>
    <rect width="8" height="8" x="80" y="176" fill="#000000"/>
    <rect width="8" height="8" x="120" y="176" fill="#000000"/>
    <rect width="8" height="8" x="144" y="176" fill="#000000"/>
    <rect width="8" height="8" x="160" y="176" fill="#000000"/>
    <rect width="8" height="8" x="176" y="176" fill="#000000"/>
    <rect width="8" height="8" x="192" y="176" fill="#000000"/>
    <rect width="8" height="8" x="208" y="176" fill="#000000"/>
    <rect width="8" height="8" x="216" y="176" fill="#000000"/>
    <rect width="8" height="8" x="224" y="176" fill="#000000"/>
    <rect width="8" height="8" x="32" y="184" fill="#000000"/>
    <rect width="8" height="8" x="80" y="184" fill="#000000"/>
    <rect width="8" height="8" x="112" y="184" fill="#000000"/>
    <rect width="8" height="8" x="120" y="184" fill="#000000"/>
    <rect width="8" height="8" x="136" y="184" fill="#000000"/>
    <rect width="8" height="8" x="160" y="184" fill="#000000"/>
    <rect width="8" height="8" x="192" y="184" fill="#000000"/>
    <rect width="8" height="8" x="208" y="184" fill="#000000"/>
    <rect width="8" height="8" x="216" y="184" fill="#000000"/>
    <rect width="8" height="8" x="32" y="192" fill="#000000"/>
    <rect width="8" height="8" x="48" y="192" fill="#000000"/>
    <rect width="8" height="8" x="56" y="192" fill="#000000"/>
    <rect width="8" height="8" x="64" y="192" fill="#000000"/>
    <rect width="8" height="8" x="80" y="192" fill="#000000"/>
    <rect width="8" height="8" x="104" y="192" fill="#000000"/>
    <rect width="8" height="8" x="152" y="192" fill="#000000"/>
    <rect width="8" height="8" x="160" y="192" fill="#000000"/>
    <rect width="8" height="8" x="168" y="192" fill="#000000"/>
    <rect width="8" height="8" x="176" y="192" fill="#000000"/>
    <rect width="8" height="8" x="184" y="192" fill="#000000"/>
    <rect width="8" height="8" x="192" y="192" fill="#000000"/>
    <rect width="8" height="8" x="32" y="200" fill="#000000"/>
    <rect width="8" height="8" x="48" y="200" fill="#000000"/>
    <rect width="8" height="8" x="56" y="200" fill="#000000"/>
    <rect width="8" height="8" x="64" y="200" fill="#000000"/>
    <rect width="8" height="8" x="80" y="200" fill="#000000"/>
    <rect width="8" height="8" x="96" y="200" fill="#000000"/>
    <rect width="8" height="8" x="144" y="200" fill="#000000"/>
    <rect width="8" height="8" x="152" y="200" fill="#000000"/>
    <rect width="8" height="8" x="160" y="200" fill="#000000"/>
    <rect width="8" height="8" x="184" y="200" fill="#000000"/>
    <rect width="8" height="8" x="192" y="200" fill="#000000"/>
    <rect width="8" height="8" x="208" y="200" fill="#000000"/>
    <rect width="8" height="8" x="216" y="200" fill="#000000"/>
    <rect width="8" height="8" x="32" y="208" fill="#000000"/>
    <rect width="8" height="8" x="48" y="208" fill="#000000"/>
    <rect width="8" height="8" x="56" y="208" fill="#000000"/>
    <rect width="8" height="8" x="64" y="208" fill="#000000"/>
    <rect width="8" height="8" x="80" y="208" fill="#000000"/>
    <rect width="8" height="8" x="128" y="208" fill="#000000"/>
    <rect width="8" height="8" x="136" y="208" fill="#000000"/>
    <rect width="8" height="8" x="152" y="208" fill="#000000"/>
    <rect width="8" height="8" x="160" y="208" fill="#000000"/>
    <rect width="8" height="8" x="184" y="208" fill="#000000"/>
    <rect width="8" height="8" x="192" y="208" fill="#000000"/>
    <rect width="8" height="8" x="224" y="208" fill="#000000"/>
    <rect width="8" height="8" x="32" y="216" fill="#000000"/>
    <rect width="8" height="8" x="80" y="216" fill="#000000"/>
    <rect width="8" height="8" x="112" y="216" fill="#000000"/>
    <rect width="8" height="8" x="120" y="216" fill="#000000"/>
    <rect width="8" height="8" x="128" y="216" fill="#000000"/>
    <rect width="8" height="8" x="136" y="216" fill="#000000"/>
    <rect width="8" height="8" x="144" y="216" fill="#000000"/>
    <rect width="8" height="8" x="152" y="216" fill="#000000"/>
    <rect width="8" height="8" x="168" y="216" fill="#000000"/>
    <rect width="8" height="8" x="192" y="216" fill="#000000"/>
    <rect width="8" height="8" x="32" y="224" fill="#000000"/>
    <rect width="8" height="8" x="40" y="224" fill="#000000"/>
    <rect width="8" height="8" x="48" y="224" fill="#000000"/>
    <rect width="8" height="8" x="56" y="224" fill="#000000"/>
    <rect width="8" height="8" x="64" y="224" fill="#000000"/>
    <rect width="8" height="8" x="72" y="224" fill="#000000"/>
    <rect width="8" height="8" x="80" y="224" fill="#000000"/>
    <rect width="8" height="8" x="104" y="224" fill="#000000"/>
    <rect width="8" height="8" x="128" y="224" fill="#000000"/>
    <rect width="8" height="8" x="144" y="224" fill="#000000"/>
    <rect width="8" height="8" x="160" y="224" fill="#000000"/>
    <rect width="8" height="8" x="168" y="224" fill="#000000"/>
    <rect width="8" height="8" x="176" y="224" fill="#000000"/>
    <rect width="8" height="8" x="184" y="224" fill="#000000"/>
    <rect width="8" height="8" x="192" y="224" fill="#000000"/>
    <rect width="8" height="8" x="216" y="224" fill="#000000"/>
    <rect width="8" height="8" x="224" y="224" fill="#000000"/>
  </g>
  <g fill="#587fa6" aria-label="Артефакт" font-family="Fira Sans" font-size="40" letter-spacing="0" style="line-height:1.25" word-spacing="0">
    <path d="M9 8.5H5.2l-.8 2.6H3L6.2.9H8l3.3 10.2H9.8zm-.3-1.1L7 2.1 5.5 7.4z" style="-inkscape-font-specification:'Fira Sans'"/>
    <path d="M16.3 3.1q1.5 0 2.2 1 .7 1.2.7 3 0 2-.8 3-.8 1.2-2.3 1.2-1.3 0-2-1v3.8l-1.3.1V3.3h1.1l.1 1q.4-.5 1-.8.7-.4 1.3-.4zm-.5 7q2 0 2-3 0-2.9-1.8-2.9-.6 0-1 .3-.5.4-.9 1v3.7q.3.5.7.7.5.3 1 .3z" style="-inkscape-font-specification:'Fira Sans'"/>
    <path d="M26.5 4.4H24v6.7h-1.4V4.4H20v-1h6.6z" style="-inkscape-font-specification:'Fira Sans'"/>
    <path d="M33.8 7v.7h-5q0 1.3.6 1.9.6.6 1.5.6l1-.2 1-.5.6.8q-1.2 1-2.7 1-1.6 0-2.6-1-.9-1.2-.9-3 0-1.2.4-2.2.4-1 1.1-1.4.8-.6 1.8-.6 1.5 0 2.4 1 .8 1 .8 2.9zm-1.4-.4q0-1.2-.4-1.8-.5-.6-1.4-.6-1.7 0-1.8 2.5h3.6z" style="-inkscape-font-specification:'Fira Sans'"/>
    <path d="M43.1 3.1q1.5 0 2 1 .7 1.1.7 3 0 2-.7 3-.7 1.2-2 1.2-1.1 0-1.8-1V14l-1.3.1v-4q-.3.6-.8.8-.5.3-1 .3-1.3 0-2-1.1-.6-1.1-.6-3 0-2 .5-3 .7-1 2-1 1.2 0 2 .8V0l1.2.2V4q.7-.9 1.8-.9zm-4.7 7q.5 0 .9-.2t.7-.7V5.1q-.6-.9-1.6-.9-.7 0-1 .8-.4.7-.4 2.2 0 1.5.4 2.2.4.8 1 .8zm4.5 0q.6 0 1-.7t.4-2.2q0-3-1.4-3-1 0-1.6 1v4q.3.5.7.8.4.2.9.2z" style="-inkscape-font-specification:'Fira Sans'"/>
    <path d="M53.4 9.3l.1.7.5.3-.3 1q-.6-.1-1-.4-.4-.2-.5-.8-.8 1.2-2.4 1.2-1.1 0-1.8-.7-.6-.6-.6-1.7 0-1.2.9-1.9.9-.6 2.5-.6H52v-.6q0-.9-.4-1.2-.4-.4-1.2-.4-.9 0-2.1.5l-.4-1q1.5-.6 2.7-.6 1.4 0 2 .7.8.7.8 2zm-3.2 1q1.1 0 1.8-1.3V7.3h-1q-2.2 0-2.2 1.5 0 .7.4 1.1.3.4 1 .4z" style="-inkscape-font-specification:'Fira Sans'"/>
    <path d="M59.6 7l2.7 4h-1.6l-2.2-3.5h-1v3.6h-1.3V3.3h1.3v3.1h1l2-3H62z" style="-inkscape-font-specification:'Fira Sans'"/>
    <path d="M69 4.4h-2.6v6.7h-1.3V4.4h-2.6v-1h6.6z" style="-inkscape-font-specification:'Fira Sans'"/>
  </g>
  <text x="136.2" y="103.6" fill="#000000" stroke-width=".3" font-family="sans-serif" font-size="10.6" letter-spacing="0" style="line-height:1.25" transform="translate(-29.6 -82.5)" word-spacing="0"/>
</svg>
